<?xml version="1.0" encoding="UTF-8" standalone="no"?>
<!-- Created with Inkscape (http://www.inkscape.org/) -->

<svg
   xmlns:dc="http://purl.org/dc/elements/1.1/"
   xmlns:cc="http://creativecommons.org/ns#"
   xmlns:rdf="http://www.w3.org/1999/02/22-rdf-syntax-ns#"
   xmlns:svg="http://www.w3.org/2000/svg"
   xmlns="http://www.w3.org/2000/svg"
   xmlns:sodipodi="http://sodipodi.sourceforge.net/DTD/sodipodi-0.dtd"
   xmlns:inkscape="http://www.inkscape.org/namespaces/inkscape"
   version="1.1"
   id="svg2"
   inkscape:version="0.91+devel r14491"
   width="32"
   height="32"
   viewBox="0 0 32 32"
   sodipodi:docname="edit_active.svg">
  <metadata
     id="metadata8">
    <rdf:RDF>
      <cc:Work
         rdf:about="">
        <dc:format>image/svg+xml</dc:format>
        <dc:type
           rdf:resource="http://purl.org/dc/dcmitype/StillImage" />
        <dc:title></dc:title>
      </cc:Work>
    </rdf:RDF>
  </metadata>
  <defs
     id="defs6">
    <clipPath
       clipPathUnits="userSpaceOnUse"
       id="clipPath2560">
      <path
         d="M 14.03,17.05 13.895,40.132 54.664,80.961 77.765,57.847 36.965,17.026 14.03,17.05 Z"
         style="color:#000000;fill:none;stroke:#ffffff;stroke-width:1.82509995;stroke-linecap:square"
         sodipodi:nodetypes="cccccc"
         id="path2562"
         inkscape:connector-curvature="0" />
    </clipPath>
  </defs>
  <sodipodi:namedview
     pagecolor="#ffffff"
     bordercolor="#666666"
     borderopacity="1"
     objecttolerance="10"
     gridtolerance="10"
     guidetolerance="10"
     inkscape:pageopacity="0"
     inkscape:pageshadow="2"
     inkscape:window-width="1764"
     inkscape:window-height="1171"
     inkscape:document-units="px"
     id="namedview4"
     showgrid="false"
     width="32"
     inkscape:zoom="45.254834"
     inkscape:cx="15.174869"
     inkscape:cy="16.382493"
     inkscape:window-x="1920"
     inkscape:window-y="0"
     inkscape:window-maximized="1"
     inkscape:current-layer="svg2">
    <inkscape:grid
       type="xygrid"
       id="grid29" />
  </sodipodi:namedview>
  <path
     style="fill:#a60000;fill-opacity:1;stroke-width:0.07936464"
     d="m 29.486749,9.5272196 -2.339827,2.3401444 -6.519567,-6.5189302 2.34078,-2.3403837 c 0.737456,-0.7374576 1.845466,-0.8286463 2.471255,-0.203571 l 4.251009,4.2517228 c 0.624838,0.6248376 0.533806,1.7335614 -0.20365,2.4710177 z"
     id="path155"
     inkscape:connector-curvature="0" />
  <path
     inkscape:connector-curvature="0"
     style="fill:#ecbc4f;fill-opacity:1;stroke-width:0.07847746"
     d="m 20.248089,5.7909852 6.446689,6.4466898 -15.372402,15.372166 c -0.07047,0.07047 -0.266274,0.266274 -0.540867,0.336276 -0.03179,0.01531 -0.06428,0.02833 -0.09645,0.03853 l -8.0227502,2.55679 C 2.4377853,30.612389 2.2121618,30.566475 2.0658018,30.41988 1.91897,30.273284 1.8735312,30.047897 1.9437663,29.823295 l 2.5567946,-8.022048 c 0.010859,-0.03287 0.023942,-0.06489 0.038524,-0.09605 0.070313,-0.275065 0.2655682,-0.470317 0.3368259,-0.54126 0,0 10.1799662,-10.18019 15.3721702,-15.3729488 z"
     id="path153-5" />
  <path
     style="fill:#000000;fill-opacity:1;stroke-width:0.07847746"
     d="m 4.5390849,21.705197 -2.5954632,8.117096 c -0.070235,0.224602 -0.02416,0.45013 0.1226719,0.596726 0.14636,0.146595 0.3722024,0.193623 0.5967259,0.122671 l 8.1184895,-2.595573 z"
     id="path153"
     inkscape:connector-curvature="0"
     sodipodi:nodetypes="cccccc" />
  <path
     inkscape:connector-curvature="0"
     style="fill:#ffffff;fill-opacity:1;stroke-width:0.10014248"
     d="M 20.466053,8.4166975 C 20.078743,8.02916 19.587065,7.8927314 19.368767,8.1122276 L 7.8676271,19.612037 c -0.2186975,0.219095 -0.08227,0.710773 0.3046435,1.097913 0.3869111,0.387137 0.878904,0.523653 1.0976001,0.304557 L 20.770668,9.5145065 c 0.21882,-0.2193513 0.08242,-0.7109253 -0.304615,-1.097809 z"
     id="path5" />
  <g
     id="g7"
     transform="matrix(0.10986831,0,0,0.10986831,-96.933132,-6.4388514)" />
  <g
     id="g9"
     transform="matrix(0.10986831,0,0,0.10986831,-96.933132,-6.4388514)" />
  <g
     id="g11"
     transform="matrix(0.10986831,0,0,0.10986831,-96.933132,-6.4388514)" />
  <g
     id="g13"
     transform="matrix(0.10986831,0,0,0.10986831,-96.933132,-6.4388514)" />
  <g
     id="g15"
     transform="matrix(0.10986831,0,0,0.10986831,-96.933132,-6.4388514)" />
  <g
     id="g17"
     transform="matrix(0.10986831,0,0,0.10986831,-96.933132,-6.4388514)" />
  <g
     id="g19"
     transform="matrix(0.10986831,0,0,0.10986831,-96.933132,-6.4388514)" />
  <g
     id="g21"
     transform="matrix(0.10986831,0,0,0.10986831,-96.933132,-6.4388514)" />
  <g
     id="g23"
     transform="matrix(0.10986831,0,0,0.10986831,-96.933132,-6.4388514)" />
  <g
     id="g25"
     transform="matrix(0.10986831,0,0,0.10986831,-96.933132,-6.4388514)" />
  <g
     id="g27"
     transform="matrix(0.10986831,0,0,0.10986831,-96.933132,-6.4388514)" />
  <g
     id="g29"
     transform="matrix(0.10986831,0,0,0.10986831,-96.933132,-6.4388514)" />
  <g
     id="g31"
     transform="matrix(0.10986831,0,0,0.10986831,-96.933132,-6.4388514)" />
  <g
     id="g33"
     transform="matrix(0.10986831,0,0,0.10986831,-96.933132,-6.4388514)" />
  <g
     id="g35"
     transform="matrix(0.10986831,0,0,0.10986831,-96.933132,-6.4388514)" />
  <path
     inkscape:connector-curvature="0"
     style="fill:#ffffff;fill-opacity:1;stroke-width:0.10681473"
     d="m 10.39415,27.503092 -5.4015142,-5.40066 -1.833549,5.570519 1.6140456,1.604243 z"
     id="path151"
     sodipodi:nodetypes="ccccc" />
</svg>
