<?xml version="1.0" encoding="UTF-8" standalone="no"?>
<!-- Created with Inkscape (http://www.inkscape.org/) -->

<svg
   xmlns:dc="http://purl.org/dc/elements/1.1/"
   xmlns:cc="http://creativecommons.org/ns#"
   xmlns:rdf="http://www.w3.org/1999/02/22-rdf-syntax-ns#"
   xmlns:svg="http://www.w3.org/2000/svg"
   xmlns="http://www.w3.org/2000/svg"
   xmlns:xlink="http://www.w3.org/1999/xlink"
   xmlns:sodipodi="http://sodipodi.sourceforge.net/DTD/sodipodi-0.dtd"
   xmlns:inkscape="http://www.inkscape.org/namespaces/inkscape"
   width="95.986816mm"
   height="127.73679mm"
   viewBox="0 0 95.986816 127.73679"
   version="1.1"
   id="svg8"
   inkscape:version="0.92.2 5c3e80d, 2017-08-06"
   sodipodi:docname="yangfile.svg">
  <defs
     id="defs2">
    <symbol
       viewBox="0 0 40 20"
       id="wave">
      <path
         id="path4568"
         d="m -40,10 q 10,-10 20,0 10,10 20,0 10,-10 20,0 10,10 20,0"
         class="animate"
         inkscape:connector-curvature="0" />
    </symbol>
    <pattern
       patternUnits="userSpaceOnUse"
       viewBox="0 0 40 20"
       height="20"
       width="40"
       y="0"
       x="0"
       id="p1">
      <rect
         id="rect4571"
         style="fill:white;"
         height="20"
         width="40" />
      <use
         id="use4573"
         style="fill:none;stroke:black;stroke-width:2px;"
         xlink:href="#wave"
         height="20"
         width="40" />
    </pattern>
    <pattern
       patternUnits="userSpaceOnUse"
       viewBox="0 0 40 20"
       height="20"
       width="40"
       y="0"
       x="0"
       id="p2">
      <rect
         id="rect4576"
         style="fill:black;"
         height="20"
         width="40" />
      <path
         id="path4578"
         style="stroke:white;stroke-width:2px;"
         d="M0,10l40,0" />
    </pattern>
    <clipPath
       id="cp1">
      <circle
         id="circle4581"
         r="300"
         cy="300"
         cx="300" />
    </clipPath>
    <clipPath
       id="cp2">
      <path
         id="path4584"
         class="animate2"
         d="m 300,0 a 150,150 0 0 1 0,300 150,150 0 0 0 0,300 300,300 0 0 0 0,-600 m 0,120 a 30,30 0 0 0 0,60 30,30 0 0 0 0,-60"
         inkscape:connector-curvature="0" />
    </clipPath>
    <mask
       id="m1">
      <circle
         id="circle4587"
         style="fill:#ffffff"
         r="300"
         cy="300"
         cx="300" />
      <circle
         id="circle4589"
         class="animate2"
         style="fill:#000000"
         r="30"
         cy="450"
         cx="300" />
    </mask>
  </defs>
  <sodipodi:namedview
     id="base"
     pagecolor="#ffffff"
     bordercolor="#666666"
     borderopacity="1.0"
     inkscape:pageopacity="0.0"
     inkscape:pageshadow="2"
     inkscape:zoom="0.7"
     inkscape:cx="269.73652"
     inkscape:cy="502.21278"
     inkscape:document-units="mm"
     inkscape:current-layer="layer1"
     showgrid="false"
     fit-margin-left="1"
     fit-margin-top="1"
     fit-margin-bottom="1"
     fit-margin-right="1"
     inkscape:window-width="1920"
     inkscape:window-height="1131"
     inkscape:window-x="0"
     inkscape:window-y="0"
     inkscape:window-maximized="1">
    <inkscape:grid
       type="xygrid"
       id="grid6306"
       originx="0.99999999"
       originy="0.99999998" />
  </sodipodi:namedview>
  <metadata
     id="metadata5">
    <rdf:RDF>
      <cc:Work
         rdf:about="">
        <dc:format>image/svg+xml</dc:format>
        <dc:type
           rdf:resource="http://purl.org/dc/dcmitype/StillImage" />
        <dc:title></dc:title>
      </cc:Work>
    </rdf:RDF>
  </metadata>
  <g
     inkscape:label="Vrstva 1"
     inkscape:groupmode="layer"
     id="layer1"
     transform="translate(1,-170.26321)">
    <g
       id="g4508"
       transform="matrix(0.26458333,0,0,0.26458333,0.04335674,10.907645)" />
    <g
       id="g4510"
       transform="matrix(0.26458333,0,0,0.26458333,0.04335674,10.907645)" />
    <g
       id="g4512"
       transform="matrix(0.26458333,0,0,0.26458333,0.04335674,10.907645)" />
    <g
       id="g4514"
       transform="matrix(0.26458333,0,0,0.26458333,0.04335674,10.907645)" />
    <g
       id="g4516"
       transform="matrix(0.26458333,0,0,0.26458333,0.04335674,10.907645)" />
    <g
       id="g4518"
       transform="matrix(0.26458333,0,0,0.26458333,0.04335674,10.907645)" />
    <g
       id="g4520"
       transform="matrix(0.26458333,0,0,0.26458333,0.04335674,10.907645)" />
    <g
       id="g4522"
       transform="matrix(0.26458333,0,0,0.26458333,0.04335674,10.907645)" />
    <g
       id="g4524"
       transform="matrix(0.26458333,0,0,0.26458333,0.04335674,10.907645)" />
    <g
       id="g4526"
       transform="matrix(0.26458333,0,0,0.26458333,0.04335674,10.907645)" />
    <g
       id="g4528"
       transform="matrix(0.26458333,0,0,0.26458333,0.04335674,10.907645)" />
    <g
       id="g4530"
       transform="matrix(0.26458333,0,0,0.26458333,0.04335674,10.907645)" />
    <g
       id="g4532"
       transform="matrix(0.26458333,0,0,0.26458333,0.04335674,10.907645)" />
    <g
       id="g4534"
       transform="matrix(0.26458333,0,0,0.26458333,0.04335674,10.907645)" />
    <g
       id="g4536"
       transform="matrix(0.26458333,0,0,0.26458333,0.04335674,10.907645)" />
    <path
       style="opacity:1;fill:none;fill-opacity:1;stroke:#000000;stroke-width:4;stroke-linecap:round;stroke-linejoin:round;stroke-miterlimit:4;stroke-dasharray:none;stroke-dashoffset:0;stroke-opacity:1"
       d="M 2,173.29169 H 71.453125 L 91.958333,194.45836 91.958336,295 H 2 Z"
       id="rect6308"
       inkscape:connector-curvature="0"
       sodipodi:nodetypes="cccccc" />
    <path
       style="fill:none;fill-rule:evenodd;stroke:#000000;stroke-width:4;stroke-linecap:round;stroke-linejoin:round;stroke-miterlimit:4;stroke-dasharray:none;stroke-opacity:1"
       d="m 69.46875,173.29169 v 22.48958 h 22.489583"
       id="path6311"
       inkscape:connector-curvature="0"
       sodipodi:nodetypes="ccc" />
    <g
       aria-label=".yang"
       style="font-style:normal;font-variant:normal;font-weight:normal;font-stretch:normal;font-size:19.75555611px;line-height:125%;font-family:'Comic Sans MS';-inkscape-font-specification:'Comic Sans MS, Normal';font-variant-ligatures:normal;font-variant-caps:normal;font-variant-numeric:normal;font-feature-settings:normal;text-align:start;letter-spacing:0px;word-spacing:0px;writing-mode:lr-tb;text-anchor:start;fill:#000000;fill-opacity:1;stroke:none;stroke-width:0.26458332px;stroke-linecap:butt;stroke-linejoin:miter;stroke-opacity:1"
       id="text6315"
       transform="matrix(1.4092699,0,0,1.4092699,-20.972963,1.059217)">
      <path
         d="m 27.710969,194.7096 q -0.501605,0 -0.848871,-0.34726 -0.347266,-0.34727 -0.347266,-0.84887 0,-0.49196 0.347266,-0.83923 0.347266,-0.35691 0.848871,-0.35691 0.49196,0 0.839226,0.35691 0.356912,0.34727 0.356912,0.83923 0,0.5016 -0.356912,0.84887 -0.347266,0.34726 -0.839226,0.34726 z"
         style="font-style:normal;font-variant:normal;font-weight:normal;font-stretch:normal;font-size:19.75555611px;font-family:'Comic Sans MS';-inkscape-font-specification:'Comic Sans MS, Normal';font-variant-ligatures:normal;font-variant-caps:normal;font-variant-numeric:normal;font-feature-settings:normal;text-align:start;writing-mode:lr-tb;text-anchor:start;stroke-width:0.26458332px"
         id="path6317"
         inkscape:connector-curvature="0" />
      <path
         d="m 39.826682,185.20803 c -1.896953,4.50807 -3.937843,9.06277 -5.864931,13.49513 -0.167202,0.46302 -0.45659,0.69453 -0.868164,0.69453 -0.270095,0 -0.504821,-0.09 -0.704178,-0.2701 -0.192925,-0.17363 -0.289388,-0.39228 -0.289388,-0.65594 0,-0.64309 0.812649,-2.43395 2.083594,-5.58519 -1.349906,-2.41871 -2.574842,-4.87306 -3.887446,-7.35046 -0.173633,-0.29582 -0.260449,-0.54341 -0.260449,-0.74276 0,-0.26367 0.09968,-0.49518 0.299034,-0.69453 0.205787,-0.19936 0.434082,-0.29904 0.684885,-0.29904 0.295819,0 0.524114,0.11254 0.684885,0.33762 0.927879,1.68304 2.007014,3.77294 3.520888,6.4823 0.974907,-2.10479 1.960491,-4.20884 2.913173,-6.29902 0.205787,-0.36013 0.475882,-0.54019 0.810286,-0.54019 0.263665,0 0.495175,0.0932 0.694532,0.27974 0.205787,0.1865 0.30868,0.40837 0.30868,0.6656 0,0.14147 -0.0418,0.30224 -0.125401,0.48231 z"
         style="font-style:normal;font-variant:normal;font-weight:normal;font-stretch:normal;font-size:19.75555611px;font-family:'Comic Sans MS';-inkscape-font-specification:'Comic Sans MS, Normal';font-variant-ligatures:normal;font-variant-caps:normal;font-variant-numeric:normal;font-feature-settings:normal;text-align:start;writing-mode:lr-tb;text-anchor:start;stroke-width:0.26458332px"
         id="path6319"
         inkscape:connector-curvature="0"
         sodipodi:nodetypes="ccscsccscscccscsc" />
      <path
         d="m 49.251084,194.44915 c -0.122186,0 -0.34405,-0.14148 -0.665592,-0.42443 -0.289388,-0.26367 -0.504821,-0.49839 -0.6463,-0.70418 -0.617361,0.33441 -1.160768,0.58521 -1.630219,0.75241 -0.469452,0.17363 -0.861734,0.26045 -1.176845,0.26045 -1.504817,0 -2.601276,-0.42444 -3.289377,-1.27331 -0.649515,-0.79743 -0.974273,-2.01929 -0.974273,-3.66558 0,-1.55627 0.53376,-2.88745 1.60128,-3.99356 1.073951,-1.1061 2.35369,-1.65915 3.839215,-1.65915 0.559483,0 1.186491,0.14469 1.881022,0.43408 0.874595,0.36013 1.311892,0.79421 1.311892,1.30224 0,0.17363 -0.06431,0.32798 -0.192925,0.46303 0.02539,4.73586 -0.03486,6.27646 0.559482,6.94531 0.04501,0.11575 0.118968,0.28617 0.221864,0.51125 l 0.05788,0.16399 c 0,0.25723 -0.09003,0.46945 -0.270095,0.63665 -0.180064,0.1672 -0.389067,0.2508 -0.627008,0.2508 z m -1.794206,-8.64305 c -0.237941,-0.12219 -0.443728,-0.21222 -0.617361,-0.2701 -0.167202,-0.0579 -0.30225,-0.0868 -0.405144,-0.0868 -0.996781,0 -1.858514,0.40836 -2.585199,1.22507 -0.720255,0.81029 -1.080382,1.74598 -1.080382,2.80707 0,1.05465 0.186494,1.84565 0.559483,2.37298 0.372989,0.52733 0.932473,0.79099 1.678451,0.79099 0.617361,0 1.141474,-0.11254 1.572341,-0.33762 0.231511,-0.12219 0.556268,-0.36656 0.974273,-0.73311 -0.02107,-1.91785 -0.06679,-3.57343 -0.09646,-5.76848 z"
         style="font-style:normal;font-variant:normal;font-weight:normal;font-stretch:normal;font-size:19.75555611px;font-family:'Comic Sans MS';-inkscape-font-specification:'Comic Sans MS, Normal';font-variant-ligatures:normal;font-variant-caps:normal;font-variant-numeric:normal;font-feature-settings:normal;text-align:start;writing-mode:lr-tb;text-anchor:start;stroke-width:0.26458332px"
         id="path6321"
         inkscape:connector-curvature="0"
         sodipodi:nodetypes="scccscscscscccccssccscscsccc" />
      <path
         d="m 58.91822,194.49739 c -0.553053,0 -0.864949,-0.30225 -0.935688,-0.90675 -2.63e-4,-1.78343 -0.04444,-3.57262 -0.0691,-5.14146 0.0075,-0.83272 0.09389,-2.95655 -0.733112,-2.99999 -0.720255,0 -1.502849,0.61664 -2.158795,1.47194 -0.591638,0.77813 -1.267271,1.66755 -1.294569,2.76277 -0.06024,1.36082 -0.07769,2.37403 -0.02894,3.61735 0,0.28939 -0.09003,0.52411 -0.270096,0.70418 -0.173633,0.18006 -0.398712,0.27009 -0.675239,0.27009 -0.282957,0 -0.511252,-0.09 -0.684885,-0.27009 -0.173633,-0.18007 -0.260449,-0.41479 -0.260449,-0.70418 0.01334,-3.10984 -0.02955,-7.99618 0.08682,-9.07714 0,-0.27653 0.09003,-0.50161 0.270096,-0.67524 0.186495,-0.18006 0.41479,-0.27009 0.684885,-0.27009 0.591638,0 0.916396,0.418 0.974273,1.25401 l 0.02894,1.12861 c 1.080382,-1.44051 2.189703,-2.16076 3.327962,-2.16076 1.028935,0 1.745975,0.45337 2.151118,1.36012 0.276526,0.6045 0.427651,1.49839 0.453374,2.68167 0.107819,1.71608 0.12619,4.13657 0.09808,5.99997 0,0.28296 -0.09325,0.51126 -0.279742,0.68489 -0.180064,0.18007 -0.408359,0.2701 -0.684885,0.2701 z"
         style="font-style:normal;font-variant:normal;font-weight:normal;font-stretch:normal;font-size:19.75555611px;font-family:'Comic Sans MS';-inkscape-font-specification:'Comic Sans MS, Normal';font-variant-ligatures:normal;font-variant-caps:normal;font-variant-numeric:normal;font-feature-settings:normal;text-align:start;writing-mode:lr-tb;text-anchor:start;stroke-width:0.26458332px"
         id="path6323"
         inkscape:connector-curvature="0"
         sodipodi:nodetypes="scccccccsccccsccsccccss" />
      <path
         d="m 69.854869,195.71657 c -0.156433,1.06987 -0.354044,1.74863 -0.923561,2.31974 -0.690593,0.69013 -1.760027,1.12675 -3.208301,1.30985 -0.872172,0.0364 -1.567184,0.0689 -2.155908,0.0267 -0.824053,-0.0579 -1.26794,-0.33881 -1.331661,-0.84284 -0.07179,-0.56783 0.169851,-0.88683 0.724917,-0.957 0.229682,-0.0291 0.619342,-0.0232 1.168979,0.0175 0.550443,0.0471 1.150242,0.094 1.799396,-0.001 1.222555,-0.17399 1.827534,-0.73247 2.145666,-1.95893 0.207838,-0.81708 0.242915,-2.19927 0.199725,-3.79223 -0.263863,0.68157 -0.614881,1.2121 -1.053056,1.59159 -0.431794,0.3787 -0.953934,0.60677 -1.56642,0.6842 -1.154791,0.14599 -2.145455,-0.12741 -2.971994,-0.8202 -0.820965,-0.69999 -1.310898,-1.67842 -1.469799,-2.93529 -0.217782,-1.72261 0.101237,-3.17279 0.957058,-4.35052 0.883687,-1.21367 2.205979,-1.93181 3.966876,-2.15443 0.593345,-0.075 1.100669,-0.0614 1.521972,0.0409 0.421302,0.10231 0.756582,0.29327 1.005841,0.5729 0.685083,-0.0672 1.074409,0.26927 1.167978,1.00938 0.07207,2.39322 0.145646,7.23056 0.02229,10.23968 z m -3.620235,-10.31961 c -1.212211,0.15325 -2.097246,0.68972 -2.655107,1.6094 -0.498167,0.82786 -0.67385,1.82238 -0.527049,2.98355 0.116956,0.9251 0.380327,1.59834 0.790113,2.01972 0.409785,0.42139 0.96558,0.58772 1.667387,0.49899 0.644386,-0.0815 1.223656,-0.52418 1.737809,-1.32813 0.463992,-0.73927 0.692728,-1.44232 0.686209,-2.10915 0.04687,-0.70599 0.0537,-1.80555 0.0205,-3.2987 -0.280207,-0.16552 -0.563532,-0.27879 -0.849973,-0.33981 -0.286442,-0.061 -0.576405,-0.073 -0.869888,-0.0359 z"
         style="font-style:normal;font-variant:normal;font-weight:normal;font-stretch:normal;font-size:19.75555611px;font-family:'Comic Sans MS';-inkscape-font-specification:'Comic Sans MS, Normal';font-variant-ligatures:normal;font-variant-caps:normal;font-variant-numeric:normal;font-feature-settings:normal;text-align:start;writing-mode:lr-tb;text-anchor:start;stroke-width:0.26458332px"
         id="path6325"
         inkscape:connector-curvature="0"
         sodipodi:nodetypes="cccccccccccscscsccccccscsccccccc" />
    </g>
    <path
       style="fill:none;fill-rule:evenodd;stroke:#000000;stroke-width:4;stroke-linecap:round;stroke-linejoin:round;stroke-miterlimit:4;stroke-dasharray:none;stroke-opacity:1"
       d="M 18.914436,244.5402 H 75.0439"
       id="path6328"
       inkscape:connector-curvature="0" />
    <path
       style="fill:none;fill-rule:evenodd;stroke:#000000;stroke-width:4;stroke-linecap:round;stroke-linejoin:round;stroke-miterlimit:4;stroke-dasharray:none;stroke-opacity:1"
       d="M 18.914436,231.50003 H 75.0439"
       id="path6328-5"
       inkscape:connector-curvature="0" />
    <path
       style="fill:none;fill-rule:evenodd;stroke:#000000;stroke-width:4;stroke-linecap:round;stroke-linejoin:round;stroke-miterlimit:4;stroke-dasharray:none;stroke-opacity:1"
       d="M 18.914436,218.45985 H 75.0439"
       id="path6328-2"
       inkscape:connector-curvature="0" />
    <path
       style="fill:none;fill-rule:evenodd;stroke:#000000;stroke-width:4;stroke-linecap:round;stroke-linejoin:round;stroke-miterlimit:4;stroke-dasharray:none;stroke-opacity:1"
       d="M 18.914436,205.41967 H 75.0439"
       id="path6328-9"
       inkscape:connector-curvature="0" />
  </g>
  <style
     id="style4566"
     type="text/css"><![CDATA[
    @keyframes a1
    {
      from {transform:translate(0px,0px);}
      to {transform:translate(40px,0px);}
    }
    .animate {animation: a1 1s linear infinite;transform-origin:0px 10px;}
    
    @keyframes a2
    {
      from {transform:rotate(0deg));}
      to {transform:rotate(360deg);}
    }
    .animate2 {animation: a2 4s linear infinite;transform-origin:300px 300px;}
  ]]></style>
</svg>
