<?xml version="1.0" encoding="UTF-8" standalone="no"?>
<!-- Created with Inkscape (http://www.inkscape.org/) -->

<svg
   xmlns:dc="http://purl.org/dc/elements/1.1/"
   xmlns:cc="http://creativecommons.org/ns#"
   xmlns:rdf="http://www.w3.org/1999/02/22-rdf-syntax-ns#"
   xmlns:svg="http://www.w3.org/2000/svg"
   xmlns="http://www.w3.org/2000/svg"
   xmlns:sodipodi="http://sodipodi.sourceforge.net/DTD/sodipodi-0.dtd"
   xmlns:inkscape="http://www.inkscape.org/namespaces/inkscape"
   version="1.1"
   id="svg2"
   inkscape:version="0.91+devel r14491"
   width="32"
   height="32"
   viewBox="0 0 32 32"
   sodipodi:docname="edit.svg">
  <metadata
     id="metadata8">
    <rdf:RDF>
      <cc:Work
         rdf:about="">
        <dc:format>image/svg+xml</dc:format>
        <dc:type
           rdf:resource="http://purl.org/dc/dcmitype/StillImage" />
        <dc:title></dc:title>
      </cc:Work>
    </rdf:RDF>
  </metadata>
  <defs
     id="defs6">
    <clipPath
       clipPathUnits="userSpaceOnUse"
       id="clipPath2560">
      <path
         d="M 14.03,17.05 13.895,40.132 54.664,80.961 77.765,57.847 36.965,17.026 14.03,17.05 Z"
         style="color:#000000;fill:none;stroke:#ffffff;stroke-width:1.82509995;stroke-linecap:square"
         sodipodi:nodetypes="cccccc"
         id="path2562"
         inkscape:connector-curvature="0" />
    </clipPath>
  </defs>
  <sodipodi:namedview
     pagecolor="#ffffff"
     bordercolor="#666666"
     borderopacity="1"
     objecttolerance="10"
     gridtolerance="10"
     guidetolerance="10"
     inkscape:pageopacity="0"
     inkscape:pageshadow="2"
     inkscape:window-width="1764"
     inkscape:window-height="1171"
     inkscape:document-units="px"
     id="namedview4"
     showgrid="false"
     width="32"
     inkscape:zoom="16"
     inkscape:cx="14.143914"
     inkscape:cy="3.780868"
     inkscape:window-x="1920"
     inkscape:window-y="0"
     inkscape:window-maximized="1"
     inkscape:current-layer="svg2">
    <inkscape:grid
       type="xygrid"
       id="grid29" />
  </sodipodi:namedview>
  <path
     style="stroke-width:0.07371945"
     d="M 29.193669,9.3565894 27.020272,11.530281 20.96444,5.4750389 23.138721,3.3011258 c 0.685001,-0.6850025 1.714199,-0.7697049 2.295476,-0.189091 l 3.948636,3.9492995 c 0.580393,0.580393 0.495836,1.6102538 -0.189164,2.2952551 z"
     id="path155" />
  <path
     style="stroke-width:0.07371945"
     d="M 19.95522,6.4837417 26.011053,12.539574 11.570665,26.97974 c -0.0662,0.0662 -0.25013,0.25013 -0.508075,0.315888 -0.02986,0.01438 -0.06038,0.02661 -0.0906,0.03619 l -7.5363408,2.401778 c -0.2109108,0.06665 -0.422855,0.02352 -0.5603413,-0.114187 -0.1379295,-0.137708 -0.1806134,-0.34943 -0.1146366,-0.560415 l 2.4017785,-7.535678 c 0.010201,-0.03088 0.02249,-0.06096 0.036188,-0.09023 0.06605,-0.258388 0.249467,-0.441802 0.3164044,-0.508444 0,0 9.5627648,-9.562974 14.4401708,-14.4409008 z"
     id="path153" />
  <path
     style="stroke-width:0.07371945;fill:#ffffff;fill-opacity:1"
     d="M 9.7079217,26.514423 5.9800034,22.787094 4.9799978,25.926142 6.5689479,27.515313 Z"
     id="path151" />
  <path
     style="stroke-width:0.07371945;fill:#ffffff;fill-opacity:1"
     d="m 19.722561,8.8906085 c -0.214375,-0.2145976 -0.562109,-0.2145976 -0.776044,0 L 7.6889672,20.147422 c -0.2141554,0.214376 -0.2141554,0.56211 0,0.776487 0.2141547,0.214375 0.562111,0.214375 0.7762657,0 L 19.722561,9.6670219 c 0.214304,-0.2145979 0.214304,-0.5622578 0,-0.7764134 z"
     id="path5" />
  <g
     id="g7"
     transform="matrix(0.10986831,0,0,0.10986831,-96.933132,-6.4388514)" />
  <g
     id="g9"
     transform="matrix(0.10986831,0,0,0.10986831,-96.933132,-6.4388514)" />
  <g
     id="g11"
     transform="matrix(0.10986831,0,0,0.10986831,-96.933132,-6.4388514)" />
  <g
     id="g13"
     transform="matrix(0.10986831,0,0,0.10986831,-96.933132,-6.4388514)" />
  <g
     id="g15"
     transform="matrix(0.10986831,0,0,0.10986831,-96.933132,-6.4388514)" />
  <g
     id="g17"
     transform="matrix(0.10986831,0,0,0.10986831,-96.933132,-6.4388514)" />
  <g
     id="g19"
     transform="matrix(0.10986831,0,0,0.10986831,-96.933132,-6.4388514)" />
  <g
     id="g21"
     transform="matrix(0.10986831,0,0,0.10986831,-96.933132,-6.4388514)" />
  <g
     id="g23"
     transform="matrix(0.10986831,0,0,0.10986831,-96.933132,-6.4388514)" />
  <g
     id="g25"
     transform="matrix(0.10986831,0,0,0.10986831,-96.933132,-6.4388514)" />
  <g
     id="g27"
     transform="matrix(0.10986831,0,0,0.10986831,-96.933132,-6.4388514)" />
  <g
     id="g29"
     transform="matrix(0.10986831,0,0,0.10986831,-96.933132,-6.4388514)" />
  <g
     id="g31"
     transform="matrix(0.10986831,0,0,0.10986831,-96.933132,-6.4388514)" />
  <g
     id="g33"
     transform="matrix(0.10986831,0,0,0.10986831,-96.933132,-6.4388514)" />
  <g
     id="g35"
     transform="matrix(0.10986831,0,0,0.10986831,-96.933132,-6.4388514)" />
</svg>
