<?xml version="1.0" encoding="UTF-8" standalone="no"?>
<!-- Created with Inkscape (http://www.inkscape.org/) -->

<svg
   xmlns:dc="http://purl.org/dc/elements/1.1/"
   xmlns:cc="http://creativecommons.org/ns#"
   xmlns:rdf="http://www.w3.org/1999/02/22-rdf-syntax-ns#"
   xmlns:svg="http://www.w3.org/2000/svg"
   xmlns="http://www.w3.org/2000/svg"
   xmlns:sodipodi="http://sodipodi.sourceforge.net/DTD/sodipodi-0.dtd"
   xmlns:inkscape="http://www.inkscape.org/namespaces/inkscape"
   version="1.1"
   id="svg2"
   inkscape:version="0.91+devel r14491"
   width="32"
   height="32"
   viewBox="0 0 32 32"
   sodipodi:docname="show.svg">
  <metadata
     id="metadata8">
    <rdf:RDF>
      <cc:Work
         rdf:about="">
        <dc:format>image/svg+xml</dc:format>
        <dc:type
           rdf:resource="http://purl.org/dc/dcmitype/StillImage" />
        <dc:title />
      </cc:Work>
    </rdf:RDF>
  </metadata>
  <defs
     id="defs6" />
  <sodipodi:namedview
     pagecolor="#ffffff"
     bordercolor="#666666"
     borderopacity="1"
     objecttolerance="10"
     gridtolerance="10"
     guidetolerance="10"
     inkscape:pageopacity="0"
     inkscape:pageshadow="2"
     inkscape:window-width="1764"
     inkscape:window-height="1171"
     inkscape:document-units="px"
     id="namedview4"
     showgrid="false"
     width="32"
     inkscape:zoom="22.627417"
     inkscape:cx="13.117851"
     inkscape:cy="13.743637"
     inkscape:window-x="1920"
     inkscape:window-y="0"
     inkscape:window-maximized="1"
     inkscape:current-layer="svg2">
    <inkscape:grid
       type="xygrid"
       id="grid29" />
  </sodipodi:namedview>
  <path
     inkscape:connector-curvature="0"
     d="m 0.39229996,15.370659 c 0,0 7.01437074,9.874507 15.66702204,9.874507 8.652652,0 15.667023,-9.874507 15.667023,-9.874507 0,0 -6.54505,-9.8138114 -15.822111,-9.8138114 -9.2770602,0 -15.51193404,9.8138114 -15.51193404,9.8138114 z"
     id="path184-3"
     style="fill:#000000;fill-opacity:1;stroke-width:0.01452594"
     sodipodi:nodetypes="csczc" />
  <path
     inkscape:connector-curvature="0"
     d="m 3.135374,15.375972 c 0,0 5.7862538,8.145621 12.923948,8.145621 7.137695,0 12.923949,-8.145621 12.923949,-8.145621 0,0 -5.399104,-8.0955511 -13.051883,-8.0955511 -7.652778,0 -12.796014,8.0955511 -12.796014,8.0955511 z"
     id="path184-3-6"
     style="fill:#ffffff;fill-opacity:1;stroke-width:0.01198266"
     sodipodi:nodetypes="csczc" />
  <path
     style="fill:#000000;fill-opacity:1;stroke:#ffff00;stroke-width:0.00005556;stroke-linecap:round;stroke-linejoin:miter;stroke-miterlimit:4;stroke-dasharray:none;stroke-opacity:1"
     id="path377"
     sodipodi:type="arc"
     sodipodi:cx="16.05957"
     sodipodi:cy="15.075125"
     sodipodi:rx="6.1650872"
     sodipodi:ry="6.1650872"
     sodipodi:start="0"
     sodipodi:end="6.0503933"
     sodipodi:open="true"
     d="M 22.224658,15.075125 A 6.1650872,6.1650872 0 0 1 16.418164,21.229774 6.1650872,6.1650872 0 0 1 9.9361984,15.791097 6.1650872,6.1650872 0 0 1 14.988643,9.0037644 6.1650872,6.1650872 0 0 1 22.058361,13.652869" />
</svg>
