<?xml version="1.0" encoding="UTF-8" standalone="no"?>
<!-- Created with Inkscape (http://www.inkscape.org/) -->

<svg
   xmlns:dc="http://purl.org/dc/elements/1.1/"
   xmlns:cc="http://creativecommons.org/ns#"
   xmlns:rdf="http://www.w3.org/1999/02/22-rdf-syntax-ns#"
   xmlns:svg="http://www.w3.org/2000/svg"
   xmlns="http://www.w3.org/2000/svg"
   xmlns:sodipodi="http://sodipodi.sourceforge.net/DTD/sodipodi-0.dtd"
   xmlns:inkscape="http://www.inkscape.org/namespaces/inkscape"
   width="132.16154"
   height="39.459755"
   viewBox="0 0 132.16155 39.459755"
   version="1.1"
   id="svg8"
   inkscape:version="0.91+devel r14491"
   sodipodi:docname="starthere.svg">
  <defs
     id="defs2" />
  <sodipodi:namedview
     id="base"
     pagecolor="#ffffff"
     bordercolor="#666666"
     borderopacity="1.0"
     inkscape:pageopacity="0.0"
     inkscape:pageshadow="2"
     inkscape:zoom="5.6"
     inkscape:cx="62.125955"
     inkscape:cy="28.14929"
     inkscape:document-units="mm"
     inkscape:current-layer="layer1"
     showgrid="false"
     fit-margin-top="0"
     fit-margin-left="0"
     fit-margin-right="0"
     fit-margin-bottom="0"
     inkscape:window-width="1764"
     inkscape:window-height="1171"
     inkscape:window-x="1920"
     inkscape:window-y="0"
     inkscape:window-maximized="1" />
  <metadata
     id="metadata5">
    <rdf:RDF>
      <cc:Work
         rdf:about="">
        <dc:format>image/svg+xml</dc:format>
        <dc:type
           rdf:resource="http://purl.org/dc/dcmitype/StillImage" />
        <dc:title></dc:title>
      </cc:Work>
    </rdf:RDF>
  </metadata>
  <g
     inkscape:label="Layer 1"
     inkscape:groupmode="layer"
     id="layer1"
     transform="translate(-32.785245,-115.07519)">
    <g
       id="g3750"
       style="stroke:#575757;stroke-width:1.81508446;stroke-miterlimit:4;stroke-dasharray:none;stroke-opacity:1">
      <path
         sodipodi:nodetypes="cccc"
         inkscape:connector-curvature="0"
         id="path3744"
         d="m 58.990595,147.24488 c 0,0 -14.665797,-2.90419 -24.897947,2.77792 -0.315668,-13.76333 6.565993,-24.55934 6.502858,-34.02951 2.209708,4.35628 2.251178,7.50085 2.665655,11.81568"
         style="fill:none;fill-rule:evenodd;stroke:#575757;stroke-width:1.81508446;stroke-linecap:round;stroke-linejoin:round;stroke-miterlimit:4;stroke-dasharray:none;stroke-opacity:1" />
      <path
         sodipodi:nodetypes="cc"
         inkscape:connector-curvature="0"
         id="path3746"
         d="m 40.595506,115.99329 c 0,0 -2.719817,3.83774 -6.89567,10.30996"
         style="fill:none;fill-rule:evenodd;stroke:#575757;stroke-width:1.81508446;stroke-linecap:round;stroke-linejoin:miter;stroke-miterlimit:4;stroke-dasharray:none;stroke-opacity:1" />
    </g>
    <g
       aria-label="Start here"
       transform="translate(-0.96682386,1.0027185)"
       style="font-style:normal;font-weight:normal;font-size:18px;line-height:125%;font-family:sans-serif;letter-spacing:0px;word-spacing:0px;writing-mode:lr-tb;fill:#575757;fill-opacity:1;stroke:#575757;stroke-width:1px;stroke-linecap:butt;stroke-linejoin:miter;stroke-opacity:1"
       id="flowRoot3752">
      <path
         d="m 67.792578,148.96422 c 0,-0.27 -0.144,-0.486 -0.396,-0.486 -0.702,0 -1.098,0.576 -1.098,1.368 0,0.45 0.108,0.954 0.378,1.476 l 0.486,1.008 1.62,-0.108 c 3.294,-0.216 4.302,-0.774 4.86,-2.646 0.09,-0.324 0.144,-0.63 0.144,-0.918 0,-1.314 -0.972,-2.25 -2.916,-2.862 -1.404,-0.45 -3.708,-1.332 -3.708,-2.232 0,-1.674 1.98,-3.474 4.014,-3.474 1.62,0 2.142,1.134 2.61,1.134 0.108,0 0.144,-0.144 0.144,-0.432 0,-0.252 -0.36,-0.756 -0.774,-1.098 -0.576,-0.468 -0.936,-0.576 -1.944,-0.576 -1.062,0 -1.962,0.126 -2.322,0.306 -1.602,0.756 -3.15,2.718 -3.15,3.996 0,0.882 2.916,3.366 3.96,3.366 0.18,0 0.9,0.252 1.602,0.576 1.152,0.54 1.26,0.666 1.26,1.386 0,0.954 -0.108,1.152 -1.044,1.818 -0.576,0.432 -1.062,0.54 -2.304,0.54 -1.458,0 -1.602,-0.036 -1.836,-0.576 -0.09,-0.198 -0.126,-0.342 -0.126,-0.468 0,-0.414 0.54,-0.45 0.54,-1.098 z"
         style="font-style:normal;font-variant:normal;font-weight:normal;font-stretch:normal;font-size:18px;line-height:125%;font-family:Purisa;-inkscape-font-specification:'Purisa, Bold';font-variant-ligatures:normal;font-variant-caps:normal;font-variant-numeric:normal;font-feature-settings:normal;text-align:start;writing-mode:lr-tb;text-anchor:start;fill:#575757;fill-opacity:1;stroke:#575757;stroke-opacity:1"
         id="path3779"
         inkscape:connector-curvature="0" />
      <path
         d="m 79.260828,139.83822 c 0,0.54 -0.072,0.864 -0.198,0.954 -0.54,0.36 -3.168,0.504 -3.168,1.206 0,0.288 0.108,0.432 0.522,0.432 0.54,0 2.196,-0.396 2.754,-0.396 0.108,0 0.144,0.072 0.27,2.25 0.306,3.996 0.504,5.022 0.504,6.534 0,1.242 0.306,2.07 0.738,2.07 0.414,0 0.414,-0.36 0.414,-0.558 0,-1.134 -0.45,-3.042 -0.594,-7.65 l -0.108,-3.042 0.9,-0.216 c 1.458,-0.36 1.98,-0.594 1.98,-0.882 0,-0.324 -0.54,-0.396 -0.9,-0.396 -0.792,0 -1.584,0.306 -1.98,0.306 -0.036,0 -0.054,-0.018 -0.054,-0.018 -0.072,-0.072 -0.342,-4.572 -0.486,-4.878 -0.072,-0.144 -0.18,-0.198 -0.306,-0.198 -0.216,0 -0.45,0.234 -0.522,0.63 -0.018,0.108 -0.018,0.27 -0.018,0.45 0,1.368 0.252,2.052 0.252,3.402 z"
         style="font-style:normal;font-variant:normal;font-weight:normal;font-stretch:normal;font-size:18px;line-height:125%;font-family:Purisa;-inkscape-font-specification:'Purisa, Bold';font-variant-ligatures:normal;font-variant-caps:normal;font-variant-numeric:normal;font-feature-settings:normal;text-align:start;writing-mode:lr-tb;text-anchor:start;fill:#575757;fill-opacity:1;stroke:#575757;stroke-opacity:1"
         id="path3781"
         inkscape:connector-curvature="0" />
      <path
         d="m 90.916391,143.38422 c 0.792,0 1.314,0.864 1.314,4.284 0,0.288 -0.018,0.396 -0.072,0.396 -0.072,0 -0.486,-0.378 -0.63,-0.378 -0.27,0 -0.396,-0.594 -1.386,-0.594 -0.63,0 -1.458,0.234 -2.196,0.666 -1.422,0.792 -1.854,1.458 -1.854,2.43 0,0.666 0.198,1.422 0.468,1.638 0.36,0.27 1.332,0.54 1.926,0.54 1.044,0 2.826,-1.278 3.276,-2.016 0.072,-0.126 0.126,-0.198 0.162,-0.198 0.144,0 0.162,2.286 0.774,2.286 0.108,0 0.558,-0.45 0.558,-0.828 0,0 -0.126,-0.63 -0.162,-3.708 -0.036,-3.24 -0.036,-3.294 -0.468,-4.14 -0.45,-0.882 -1.026,-1.296 -1.854,-1.296 -0.45,0 -0.99,0.126 -1.638,0.378 -1.854,0.774 -2.88,0.882 -2.88,1.746 0,0.126 0.072,0.18 0.216,0.18 0.828,0 2.538,-1.386 4.446,-1.386 z m 0.81,5.58 c 0,0.432 -1.098,1.17 -1.098,1.476 0,0.216 -1.53,1.08 -2.43,1.08 -0.252,0 -0.468,-0.072 -0.72,-0.198 -0.432,-0.234 -0.486,-0.36 -0.486,-0.954 0,-0.594 0.576,-2.34 2.79,-2.34 1.602,0 1.944,0.756 1.944,0.936 z"
         style="font-style:normal;font-variant:normal;font-weight:normal;font-stretch:normal;font-size:18px;line-height:125%;font-family:Purisa;-inkscape-font-specification:'Purisa, Bold';font-variant-ligatures:normal;font-variant-caps:normal;font-variant-numeric:normal;font-feature-settings:normal;text-align:start;writing-mode:lr-tb;text-anchor:start;fill:#575757;fill-opacity:1;stroke:#575757;stroke-opacity:1"
         id="path3783"
         inkscape:connector-curvature="0" />
      <path
         d="m 101.87192,143.60022 c -0.99,0 -2.645998,1.332 -3.491998,2.916 -0.27,0.54 -0.576,0.99 -0.666,0.99 -0.162,0 -0.63,-3.33 -0.63,-4.41 0,-0.324 -0.126,-0.486 -0.288,-0.486 -0.162,0 -0.378,0.198 -0.504,0.576 -0.054,0.162 -0.072,0.558 -0.072,1.152 0,1.476 0.144,4.14 0.432,7.164 0.108,1.044 0.126,1.53 0.684,1.53 0.396,0 0.558,-0.54 0.936,-2.952 0.342,-2.142 2.195998,-4.896 3.689998,-5.49 0.468,-0.18 0.684,-0.324 0.684,-0.486 0,-0.126 -0.324,-0.504 -0.774,-0.504 z"
         style="font-style:normal;font-variant:normal;font-weight:normal;font-stretch:normal;font-size:18px;line-height:125%;font-family:Purisa;-inkscape-font-specification:'Purisa, Bold';font-variant-ligatures:normal;font-variant-caps:normal;font-variant-numeric:normal;font-feature-settings:normal;text-align:start;writing-mode:lr-tb;text-anchor:start;fill:#575757;fill-opacity:1;stroke:#575757;stroke-opacity:1"
         id="path3785"
         inkscape:connector-curvature="0" />
      <path
         d="m 108.08895,139.83822 c 0,0.54 -0.072,0.864 -0.198,0.954 -0.54,0.36 -3.168,0.504 -3.168,1.206 0,0.288 0.108,0.432 0.522,0.432 0.54,0 2.196,-0.396 2.754,-0.396 0.108,0 0.144,0.072 0.27,2.25 0.306,3.996 0.504,5.022 0.504,6.534 0,1.242 0.306,2.07 0.738,2.07 0.414,0 0.414,-0.36 0.414,-0.558 0,-1.134 -0.45,-3.042 -0.594,-7.65 l -0.108,-3.042 0.9,-0.216 c 1.458,-0.36 1.98,-0.594 1.98,-0.882 0,-0.324 -0.54,-0.396 -0.9,-0.396 -0.792,0 -1.584,0.306 -1.98,0.306 -0.036,0 -0.054,-0.018 -0.054,-0.018 -0.072,-0.072 -0.342,-4.572 -0.486,-4.878 -0.072,-0.144 -0.18,-0.198 -0.306,-0.198 -0.216,0 -0.45,0.234 -0.522,0.63 -0.018,0.108 -0.018,0.27 -0.018,0.45 0,1.368 0.252,2.052 0.252,3.402 z"
         style="font-style:normal;font-variant:normal;font-weight:normal;font-stretch:normal;font-size:18px;line-height:125%;font-family:Purisa;-inkscape-font-specification:'Purisa, Bold';font-variant-ligatures:normal;font-variant-caps:normal;font-variant-numeric:normal;font-feature-settings:normal;text-align:start;writing-mode:lr-tb;text-anchor:start;fill:#575757;fill-opacity:1;stroke:#575757;stroke-opacity:1"
         id="path3787"
         inkscape:connector-curvature="0" />
      <path
         d="m 126.57523,150.80022 c 0,1.152 0.09,1.602 0.324,1.8 0.108,0.09 0.216,0.144 0.306,0.144 0.666,0 0.558,-3.114 0.972,-4.59 0.324,-1.026 1.35,-2.52 2.466,-3.582 l 1.044,-0.972 0.288,0.9 c 0.198,0.594 0.36,2.16 0.432,4.446 0.108,3.348 0.144,3.528 0.522,3.528 0.396,0 0.396,-0.126 0.396,-3.834 0,-2.124 -0.054,-4.068 -0.144,-4.374 -0.216,-0.774 -1.08,-1.584 -1.692,-1.584 -0.63,0 -3.168,2.358 -3.654,3.438 l -0.324,0.702 -0.162,-2.124 c -0.468,-6.084 -0.378,-7.254 -0.954,-7.254 -0.126,0 -0.27,0.126 -0.414,0.378 -0.072,0.126 -0.108,0.504 -0.108,1.152 0,3.24 0.702,8.874 0.702,11.826 z"
         style="font-style:normal;font-variant:normal;font-weight:normal;font-stretch:normal;font-size:18px;line-height:125%;font-family:Purisa;-inkscape-font-specification:'Purisa, Bold';font-variant-ligatures:normal;font-variant-caps:normal;font-variant-numeric:normal;font-feature-settings:normal;text-align:start;writing-mode:lr-tb;text-anchor:start;fill:#575757;fill-opacity:1;stroke:#575757;stroke-opacity:1"
         id="path3789"
         inkscape:connector-curvature="0" />
      <path
         d="m 144.7572,148.47822 c -0.666,0 -2.808,3.06 -5.058,3.06 -0.702,0 -1.332,-0.306 -1.944,-0.9 -0.9,-0.864 -1.242,-1.566 -1.242,-2.52 v -0.72 l 1.674,-0.09 c 0.9,-0.054 2.412,-0.27 3.312,-0.468 1.728,-0.378 2.196,-0.702 2.196,-1.458 0,-0.612 -0.666,-1.656 -1.422,-2.232 -0.612,-0.468 -0.882,-0.54 -2.016,-0.63 -0.378,-0.036 -0.648,-0.054 -0.864,-0.054 -1.494,0 -3.348,2.268 -3.762,3.546 -0.126,0.378 -0.18,0.828 -0.18,1.314 0,3.51 2.286,5.202 4.122,5.202 1.206,0 2.556,-0.594 3.78,-1.674 0.738,-0.63 1.494,-1.818 1.494,-2.232 0,-0.126 -0.054,-0.144 -0.09,-0.144 z m -2.898,-4.392 c 0.594,0.522 0.81,0.756 0.81,0.972 0,0.162 -0.09,0.558 -0.9,0.756 -2.052,0.468 -3.708,0.684 -4.644,0.684 -0.36,0 -0.432,-0.072 -0.432,-0.234 0,-0.396 0.342,-0.918 1.368,-2.088 0.612,-0.702 1.044,-0.864 2.232,-0.864 0.612,0 0.828,0.108 1.566,0.774 z"
         style="font-style:normal;font-variant:normal;font-weight:normal;font-stretch:normal;font-size:18px;line-height:125%;font-family:Purisa;-inkscape-font-specification:'Purisa, Bold';font-variant-ligatures:normal;font-variant-caps:normal;font-variant-numeric:normal;font-feature-settings:normal;text-align:start;writing-mode:lr-tb;text-anchor:start;fill:#575757;fill-opacity:1;stroke:#575757;stroke-opacity:1"
         id="path3791"
         inkscape:connector-curvature="0" />
      <path
         d="m 153.09458,143.60022 c -0.99,0 -2.646,1.332 -3.492,2.916 -0.27,0.54 -0.576,0.99 -0.666,0.99 -0.162,0 -0.63,-3.33 -0.63,-4.41 0,-0.324 -0.126,-0.486 -0.288,-0.486 -0.162,0 -0.378,0.198 -0.504,0.576 -0.054,0.162 -0.072,0.558 -0.072,1.152 0,1.476 0.144,4.14 0.432,7.164 0.108,1.044 0.126,1.53 0.684,1.53 0.396,0 0.558,-0.54 0.936,-2.952 0.342,-2.142 2.196,-4.896 3.69,-5.49 0.468,-0.18 0.684,-0.324 0.684,-0.486 0,-0.126 -0.324,-0.504 -0.774,-0.504 z"
         style="font-style:normal;font-variant:normal;font-weight:normal;font-stretch:normal;font-size:18px;line-height:125%;font-family:Purisa;-inkscape-font-specification:'Purisa, Bold';font-variant-ligatures:normal;font-variant-caps:normal;font-variant-numeric:normal;font-feature-settings:normal;text-align:start;writing-mode:lr-tb;text-anchor:start;fill:#575757;fill-opacity:1;stroke:#575757;stroke-opacity:1"
         id="path3793"
         inkscape:connector-curvature="0" />
      <path
         d="m 165.32361,148.47822 c -0.666,0 -2.808,3.06 -5.058,3.06 -0.702,0 -1.332,-0.306 -1.944,-0.9 -0.9,-0.864 -1.242,-1.566 -1.242,-2.52 v -0.72 l 1.674,-0.09 c 0.9,-0.054 2.412,-0.27 3.312,-0.468 1.728,-0.378 2.196,-0.702 2.196,-1.458 0,-0.612 -0.666,-1.656 -1.422,-2.232 -0.612,-0.468 -0.882,-0.54 -2.016,-0.63 -0.378,-0.036 -0.648,-0.054 -0.864,-0.054 -1.494,0 -3.348,2.268 -3.762,3.546 -0.126,0.378 -0.18,0.828 -0.18,1.314 0,3.51 2.286,5.202 4.122,5.202 1.206,0 2.556,-0.594 3.78,-1.674 0.738,-0.63 1.494,-1.818 1.494,-2.232 0,-0.126 -0.054,-0.144 -0.09,-0.144 z m -2.898,-4.392 c 0.594,0.522 0.81,0.756 0.81,0.972 0,0.162 -0.09,0.558 -0.9,0.756 -2.052,0.468 -3.708,0.684 -4.644,0.684 -0.36,0 -0.432,-0.072 -0.432,-0.234 0,-0.396 0.342,-0.918 1.368,-2.088 0.612,-0.702 1.044,-0.864 2.232,-0.864 0.612,0 0.828,0.108 1.566,0.774 z"
         style="font-style:normal;font-variant:normal;font-weight:normal;font-stretch:normal;font-size:18px;line-height:125%;font-family:Purisa;-inkscape-font-specification:'Purisa, Bold';font-variant-ligatures:normal;font-variant-caps:normal;font-variant-numeric:normal;font-feature-settings:normal;text-align:start;writing-mode:lr-tb;text-anchor:start;fill:#575757;fill-opacity:1;stroke:#575757;stroke-opacity:1"
         id="path3795"
         inkscape:connector-curvature="0" />
    </g>
  </g>
</svg>
